# xmcd
#
# Track frame offsets:
#	150
#	12428
#	24201
#	62305
#	76109
#	86910
#	98748
#	111065
#	129759
#	142284
#	153078
#	169993
#	188824
#	200744
#	213774
#	232043
#
# Disc length: 3319 seconds
#
# Revision: 3
# Processed by: cddbd v1.4b41PL3 Copyright (c) Steve Scherf et al.
# Submitted via: OrangeCD 4.1
#
DISCID=ca0cf510
DTITLE=Johnny Cash - 16 Biggest Hits
DYEAR=1900
DGENRE=
TTITLE0=I Walk The Line
TTITLE1=I Still Miss Someone
TTITLE2=The Legend of John Henry's Hammer
TTITLE3=Don't Take Your Guns To Town
TTITLE4=In The Jailhouse Now
TTITLE5=Ring Of Fire
TTITLE6=Understand Your Man
TTITLE7=The Ballad Of Ira Hayes
TTITLE8=Folsom Prison Blues
TTITLE9=Daddy Sang Bass
TTITLE10=A Boy Named Sue
TTITLE11=Sunday Morning Coming To Town
TTITLE12=Flesh And Blood
TTITLE13=Man In Black
TTITLE14=One Piece At A Time
TTITLE15=(Ghost) Riders In The Sky
EXTD=
EXTT0=
EXTT1=
EXTT2=
EXTT3=
EXTT4=
EXTT5=
EXTT6=
EXTT7=
EXTT8=
EXTT9=
EXTT10=
EXTT11=
EXTT12=
EXTT13=
EXTT14=
EXTT15=
PLAYORDER=
